<svg xmlns="http://www.w3.org/2000/svg" viewBox="0 0 24 24"><defs><linearGradient id="a" x1="12" x2="12" y2="24" gradientUnits="userSpaceOnUse"><stop offset="0" stop-color="#f26f23"/><stop offset="1" stop-color="#f24c23"/></linearGradient></defs><path fill="url(#a)" d="M16.556 0H7.444a1 1 0 0 0-.707.293L.293 6.737A1 1 0 0 0 0 7.444v9.112a1 1 0 0 0 .293.707l6.444 6.444a1 1 0 0 0 .707.293h9.112a1 1 0 0 0 .707-.293l6.444-6.444a1 1 0 0 0 .293-.707V7.444a1 1 0 0 0-.293-.707L17.263.293A1 1 0 0 0 16.556 0Z"/><path fill="#fff" d="M18.025 10.607a.985.985 0 0 0-1.354.428l-1.293 2.638a.22.22 0 0 1-.417-.097V6.25a.8.8 0 0 0-.836-.75.778.778 0 0 0-.813.75v4.895a.351.351 0 0 1-.337.355.344.344 0 0 1-.35-.337V4.75a.782.782 0 0 0-1.563 0v6.395a.351.351 0 0 1-.337.355.344.344 0 0 1-.35-.337V5.75A.778.778 0 0 0 9.562 5a.804.804 0 0 0-.812.781v5.864a.351.351 0 0 1-.337.355.344.344 0 0 1-.35-.337V7.75a.782.782 0 0 0-1.563 0v6.75c0 3.67 2.25 5.5 5 5.5h.5c2.75 0 3.616-1.238 4.25-2.75l2.147-5.281a1.031 1.031 0 0 0-.372-1.361Z"/></svg>